<svg xmlns="http://www.w3.org/2000/svg" viewBox="0 0 200 200">
  <!-- Cercle fond vert (Burkina) -->
  <circle cx="100" cy="100" r="95" fill="#00A651"/>
  
  <!-- Étoile jaune (Burkina) -->
  <path d="M100 30 L108 58 L137 58 L114 75 L122 103 L100 86 L78 103 L86 75 L63 58 L92 58 Z" fill="#FCD116" stroke="#EF2B2D" stroke-width="2"/>
  
  <!-- Flamme (gaz) stylisée -->
  <g transform="translate(100, 120)">
    <path d="M0,-25 Q-15,-10 -10,5 Q-5,15 0,20 Q5,15 10,5 Q15,-10 0,-25 Z" fill="#EF2B2D" opacity="0.9"/>
    <path d="M0,-20 Q-10,-8 -6,3 Q-3,10 0,13 Q3,10 6,3 Q10,-8 0,-20 Z" fill="#FCD116" opacity="0.8"/>
    <path d="M0,-15 Q-5,-6 -3,0 Q-1,5 0,7 Q1,5 3,0 Q5,-6 0,-15 Z" fill="white" opacity="0.9"/>
  </g>
  
  <!-- Texte GazDispo -->
  <text x="100" y="175" font-family="Arial, sans-serif" font-size="24" font-weight="bold" fill="white" text-anchor="middle">GazDispo</text>
</svg>
